<svg id="Layer_1" data-name="Layer 1" xmlns="http://www.w3.org/2000/svg" width="199.94" height="145.38" viewBox="0 0 199.94 145.38"><defs><style>.cls-1,.cls-3,.cls-5,.cls-7{fill:none;}.cls-1{stroke:red;}.cls-1,.cls-3,.cls-5{stroke-miterlimit:10;stroke-width:4px;}.cls-2{fill:red;}.cls-3{stroke:#0a0;}.cls-4{fill:#0a0;}.cls-5{stroke:blue;}.cls-6{fill:blue;}</style></defs><title>right hand</title><path d="M100.62,43.33c-13.7,0-24.84,4.91-24.84,10.94H71.12c0-7.17,13.24-13,29.5-13,9.57,0,17,1.85,22.57,5.3L120.93,48C116.28,45.06,108.68,43.33,100.62,43.33Z"/><path d="M123.08,59l4.23.86A16.42,16.42,0,0,1,125,61.59l-2.31-2.31Z"/><path d="M49.53,126.59c10.27,9.07,21.87,12.77,25.86,8.24l3.49,3.08c-4.74,5.38-18.52,1-30.71-9.78-7.17-6.34-11.55-12.68-13.41-18.92l2.62.45C38.94,114.92,43.49,121.25,49.53,126.59Z"/><path d="M43.06,100l-2.61-3.45a16.11,16.11,0,0,1,2.88.2l.2,3.26A3.69,3.69,0,0,0,43.06,100Z"/><path d="M151.64,124.46c8.71-10.58,12-22.3,7.34-26.14l3-3.59c5.54,4.55,1.63,18.48-8.7,31-6.09,7.39-12.27,12-18.45,14.06l.36-2.63C140.35,135.44,146.51,130.68,151.64,124.46Z"/><path d="M125.29,131.85l-3.36,2.72a17.78,17.78,0,0,1,.1-2.88l3.25-.31C125.28,131.54,125.28,131.7,125.29,131.85Z"/><line class="cls-1" x1="99.52" y1="99.27" x2="99.52" y2="21.82"/><polygon class="cls-2" points="105.44 26.32 99.52 23.8 93.59 26.32 99.52 12.27 105.44 26.32"/><line class="cls-3" x1="94.28" y1="100.01" x2="24.32" y2="129.56"/><polygon class="cls-4" points="26.15 122.35 26.14 128.79 30.76 133.26 15.52 133.27 26.15 122.35"/><line class="cls-5" x1="104.52" y1="100.01" x2="174.48" y2="129.56"/><polygon class="cls-6" points="168.03 133.26 172.66 128.79 172.64 122.35 183.28 133.27 168.03 133.26"/><circle cx="99.52" cy="99.67" r="9.6"/><path class="cls-6" d="M190.79,135.5l-.35.83-2.51-1.05-1.05,2.51-.84-.35,1.05-2.51-2.51-1.06.35-.84,2.52,1.06,1.05-2.51.84.35-1.06,2.51Z"/><path class="cls-6" d="M191.18,139.6l-1.14-.48,4.29-3.33-.53-4.95,1.24.52.39,3.58,2.85-2.22,1.14.48-3.86,3,.6,5.5-1.26-.53-.44-4.11Z"/><path class="cls-4" d="M5.06,135.2l1.07,2.61,2.51-1,.27.67-2.5,1,1.08,2.63-.71.29L5.7,138.76l-2.51,1-.27-.67,2.5-1-1.07-2.61Z"/><path class="cls-4" d="M10.54,139.18l1.64-7.78v0l-3.79,1.56-.33-.81,5-2.08.24.59-1.63,7.75,0,0,4.18-1.73.33.81-5.45,2.25Z"/><path class="cls-2" d="M98.74,6.64l0,.91-2.72.09.09,2.72-.91,0-.09-2.72-2.72.09,0-.91,2.72-.09L95,4l.91,0L96,6.73Z"/><path class="cls-2" d="M102.31,10.15,102.16,6,99.29,1.16l1.34,0,2.15,3.54L104.68,1l1.21,0-2.54,5,.14,4.2Z"/><path class="cls-7" d="M121.93,134.57a17.78,17.78,0,0,1,.1-2.88l3.25-.31c0,.16,0,.32,0,.47Z"/><path d="M124.51,139.69l-4.68-7.79,2.2-.21c.72-6.35,4.74-14.7,11.12-22.45,10.34-12.55,23.25-19.07,28.78-14.51l-3,3.59c-4.66-3.83-15.54,1.65-24.25,12.23-6,7.34-9.57,15.32-9.45,20.83l2.32-.23Z"/><path class="cls-7" d="M40.45,96.55a16.11,16.11,0,0,1,2.88.2l.2,3.26a3.69,3.69,0,0,0-.47,0Z"/><path d="M35.26,98.94l7.94-4.4.13,2.21c6.32.94,14.53,5.25,22,11.89,12.19,10.77,18.25,23.9,13.5,29.27l-3.49-3.08c4-4.52-1.1-15.58-11.37-24.65-7.13-6.3-15-10.1-20.49-10.17l.15,2.32Z"/><path class="cls-7" d="M127.31,59.83A16.42,16.42,0,0,1,125,61.59l-2.31-2.31.37-.31Z"/><path d="M129.62,54.59l-3,8.56L125,61.59c-5.36,3.48-14.36,5.68-24.4,5.68-16.26,0-29.5-5.83-29.5-13h4.66c0,6,11.15,10.95,24.84,10.95,9.51,0,17.92-2.35,22.09-5.94l-1.64-1.65Z"/></svg>